<?xml version="1.0" encoding="utf-8"?>
<!-- Generator: Adobe Illustrator 19.0.0, SVG Export Plug-In . SVG Version: 6.00 Build 0)  -->
<svg version="1.1" id="Layer_1" xmlns="http://www.w3.org/2000/svg" xmlns:xlink="http://www.w3.org/1999/xlink" x="0px" y="0px"
	 viewBox="0 0 1400 1400" style="enable-background:new 0 0 1400 1400;" xml:space="preserve">
<style type="text/css">
	.st0{fill:url(#XMLID_9_);}
	.st1{fill:url(#XMLID_11_);}
	.st2{fill:url(#XMLID_12_);}
	.st3{fill:url(#XMLID_16_);}
</style>
<g id="XMLID_1_">
	<g id="XMLID_15_">
		<linearGradient id="XMLID_9_" gradientUnits="userSpaceOnUse" x1="1400" y1="700" x2="3.363220e-007" y2="700">
			<stop  offset="0" style="stop-color:#FFFFFF"/>
			<stop  offset="0.5806" style="stop-color:#514E4F"/>
			<stop  offset="1" style="stop-color:#000000"/>
		</linearGradient>
		<path id="XMLID_5_" class="st0" d="M1400,0H0c0,0,396.6,20.2,561.6,157.8c152.7,127.4,616.7,631,684.8,705c0,0,0,0,0.1,0.1
			c2.5,2.7,5,5.4,7.4,8.1c0.2,0.2,0.4,0.5,0.6,0.7c0.1,0.1,0.1,0.2,0.2,0.2c0,0,145.3,123.4,145.3,528V0z"/>
		<linearGradient id="XMLID_11_" gradientUnits="userSpaceOnUse" x1="1246.3337" y1="510.3273" x2="561.5708" y2="510.3273">
			<stop  offset="0" style="stop-color:#FFFFFF"/>
			<stop  offset="0.5806" style="stop-color:#514E4F"/>
			<stop  offset="1" style="stop-color:#000000"/>
		</linearGradient>
		<path id="XMLID_4_" class="st1" d="M561.6,157.8c0,0,153.2,194.2,15.7,542.2c0,0,451.6-67,669.1,162.9
			C1178.3,788.8,714.3,285.2,561.6,157.8z"/>
		<linearGradient id="XMLID_12_" gradientUnits="userSpaceOnUse" x1="1253.8444" y1="866.9733" x2="1246.4025" y2="866.9733">
			<stop  offset="0" style="stop-color:#FFFFFF"/>
			<stop  offset="0.5806" style="stop-color:#514E4F"/>
			<stop  offset="1" style="stop-color:#000000"/>
		</linearGradient>
		<path id="XMLID_3_" class="st2" d="M1253.8,871c-2.4-2.7-4.9-5.4-7.4-8.1C1250.1,866.9,1252.6,869.7,1253.8,871z"/>
		<linearGradient id="XMLID_16_" gradientUnits="userSpaceOnUse" x1="1254.4824" y1="871.3786" x2="1253.8444" y2="871.3786">
			<stop  offset="0" style="stop-color:#FFFFFF"/>
			<stop  offset="0.5806" style="stop-color:#514E4F"/>
			<stop  offset="1" style="stop-color:#000000"/>
		</linearGradient>
		<path id="XMLID_2_" class="st3" d="M1254.5,871.7c-0.2-0.2-0.4-0.5-0.6-0.7C1254.1,871.3,1254.3,871.6,1254.5,871.7z"/>
	</g>
	<g id="XMLID_14_">
	</g>
</g>
</svg>
