<?xml version="1.0" encoding="utf-8"?>
<!-- Generator: Adobe Illustrator 19.0.0, SVG Export Plug-In . SVG Version: 6.00 Build 0)  -->
<svg version="1.1" id="Layer_1" xmlns="http://www.w3.org/2000/svg" xmlns:xlink="http://www.w3.org/1999/xlink" x="0px" y="0px"
	 viewBox="0 0 1400 1400" style="enable-background:new 0 0 1400 1400;" xml:space="preserve">
<style type="text/css">
	.st0{fill:url(#XMLID_9_);}
	.st1{fill:url(#XMLID_11_);}
	.st2{fill:url(#XMLID_12_);}
	.st3{fill:url(#XMLID_16_);}
</style>
<g id="XMLID_1_">
	<g id="XMLID_15_">
		<linearGradient id="XMLID_9_" gradientUnits="userSpaceOnUse" x1="0" y1="700" x2="1400" y2="700">
			<stop  offset="0" style="stop-color:#FFFFFF"/>
			<stop  offset="0.5806" style="stop-color:#514E4F"/>
			<stop  offset="1" style="stop-color:#000000"/>
		</linearGradient>
		<path id="XMLID_5_" class="st0" d="M0,0h1400c0,0-396.6,20.2-561.6,157.8c-152.7,127.4-616.7,631-684.8,705c0,0,0,0-0.1,0.1
			c-2.5,2.7-5,5.4-7.4,8.1c-0.2,0.2-0.4,0.5-0.6,0.7c-0.1,0.1-0.1,0.2-0.2,0.2C145.3,872,0,995.4,0,1400V0z"/>
		<linearGradient id="XMLID_11_" gradientUnits="userSpaceOnUse" x1="153.6662" y1="510.3273" x2="838.4292" y2="510.3273">
			<stop  offset="0" style="stop-color:#FFFFFF"/>
			<stop  offset="0.5806" style="stop-color:#514E4F"/>
			<stop  offset="1" style="stop-color:#000000"/>
		</linearGradient>
		<path id="XMLID_4_" class="st1" d="M838.4,157.8c0,0-153.2,194.2-15.7,542.2c0,0-451.6-67-669.1,162.9
			C221.7,788.8,685.7,285.2,838.4,157.8z"/>
		<linearGradient id="XMLID_12_" gradientUnits="userSpaceOnUse" x1="146.1557" y1="866.9733" x2="153.5975" y2="866.9733">
			<stop  offset="0" style="stop-color:#FFFFFF"/>
			<stop  offset="0.5806" style="stop-color:#514E4F"/>
			<stop  offset="1" style="stop-color:#000000"/>
		</linearGradient>
		<path id="XMLID_3_" class="st2" d="M146.2,871c2.4-2.7,4.9-5.4,7.4-8.1C149.9,866.9,147.4,869.7,146.2,871z"/>
		<linearGradient id="XMLID_16_" gradientUnits="userSpaceOnUse" x1="145.5175" y1="871.3786" x2="146.1557" y2="871.3786">
			<stop  offset="0" style="stop-color:#FFFFFF"/>
			<stop  offset="0.5806" style="stop-color:#514E4F"/>
			<stop  offset="1" style="stop-color:#000000"/>
		</linearGradient>
		<path id="XMLID_2_" class="st3" d="M145.5,871.7c0.2-0.2,0.4-0.5,0.6-0.7C145.9,871.3,145.7,871.6,145.5,871.7z"/>
	</g>
	<g id="XMLID_14_">
	</g>
</g>
</svg>
