<?xml version="1.0" encoding="utf-8"?>
<!-- Generator: Adobe Illustrator 19.0.0, SVG Export Plug-In . SVG Version: 6.00 Build 0)  -->
<svg version="1.1" id="Layer_1" xmlns="http://www.w3.org/2000/svg" xmlns:xlink="http://www.w3.org/1999/xlink" x="0px" y="0px"
	 viewBox="0 0 3957 5836" style="enable-background:new 0 0 3957 5836;" xml:space="preserve">
<style type="text/css">
	.st0{fill:#FFFFFF;}
</style>
<g id="XMLID_29_">
	<path id="XMLID_49_" class="st0" d="M1874.6,5836c-35.1-12.7-71.6-7.1-107.5-8.1c-346.8-9.7-692.6-32.3-1036.3-81.5
		c-142.1-20.3-279.4-59.8-413.8-110.2c-48.3-18.2-90.7-46.3-130.5-78.7c-75.5-61.4-90.8-145-97.4-237.8
		c-21.4-301.5-20.6-603.4-26.5-905.2c-5.2-265.6,2.6-531.5-5.3-797c-13.9-465.3-17.1-930.7-30.1-1395.9
		c-3.4-120.4-6.7-240.9-8.9-361.3c-2.9-160.9,65.5-188.9,210.7-229.1c18.8-5.2,39.7-19,61.7-7.6c4.2,2.2,7.9,5.4,21.2,14.7
		c-67,16.3-99.5,59.7-115.6,117.6c-2.8,10.2-11.6,15.8-21.8,18.1c-39.2,8.9-67.7,25.4-58.1,73.8c1.2,6.2-5,18-10.8,20.8
		c-41.1,19.9-33.1,55.8-31.4,90.2c5,103.8,10.6,207.6,14.2,311.4c4.5,131.9,9.7,263.8,10,395.8c0.2,107.1-1.8,214.1-0.5,321.3
		c3.4,272.3,20.8,544.1,26.1,816.3c1.5,75.7,3.4,151.5,2.6,227.2c-3.8,341.6,38,682,25.5,1024.1c-4.1,112.3,0.7,227,34.3,337.5
		c12,39.5,35,65.9,70.4,84.1c16,8.3,30.9,18.8,46.8,27.4c25.6,13.8,40.2,41.5,83.9,19.6c45.7-22.9,95.2,14.3,149.9,39.9
		c-43.5,8.2-73.3-12.2-105.8-8.9c44.8,16.2,80.5,57.3,134.8,46.6c7.5-1.5,17.2,0.5,23.8,4.4c125.3,74.7,268.4,72.2,405.4,88.8
		c311.8,37.8,626,40.1,939.4,54.3c298.3,13.5,594.3-16.7,891.3-26c165.4-5.2,330.1-30.6,495.1-48.1c29.1-3.1,57.3-11,81.7-30.9
		c13.5-11,32.1-19.9,49.2-21.3c80-6.6,151.5-40.5,225.2-67.1c17.3-6.2,37.3-12.6,45-28.6c31.6-65.8,76.9-124.6,81-203.8
		c3.4-64.9,20.5-128.9,27.7-194.3c18.1-164.8,10.4-329.8,14.2-494.7c0.4-16.1,5.6-42.5-23.3-38.6c-24.8,3.3-37.8,26.2-30.1,48.4
		c30,86.4-16.4,164.5-23,246.8c-2.1,26.6-11.5,52.6-20.9,78.5c-13.2-44.8-12.7-90.4-3.1-134.4c20.9-95.7,24-192.2,23.8-289.5
		c-0.1-56.8,0.7-111.7,22.3-168.9c21.4-56.7,9.3-123.9,3.4-186.4c-5.7-60.7-10.7-122.4,3.1-181.3c14.5-62,14.3-122.2,11.4-185.1
		c-6.3-134.8,4.7-269.7,2.5-405c-3-188.4-9-377.7,7-566.1c14.9-174.7-1-350.2,12-524.3c8.6-115.2,18.1-229.8,16.4-345.4
		c-0.5-31.8-5.9-56.6-38-73.3c-25.7-13.2-52.2-34.5-4-57.1c12-5.7,16.3-15.8,10.2-28.8c-28.6-61.4-39.4-136-118.6-159.8
		c-6-1.8-13.9-6-15.9-11c-28-71.3-90.2-63.9-148.6-67.4c-29.4-1.7-58.5-7.6-94.7-12.5c36.2-22.7,60.3-49.3,72.1-85.6
		c20.9-64.5,7.8-88.1-59.7-88.2c-63.6-0.1-126-18.6-190-8.9c54.5-28.3,115,11.1,169.9-17.2c-149.9-12.6-299.8-0.5-449.3-5.1
		c0-4-0.1-8-0.1-12c68.1,0,136.2,0,204.4,0c0-4.9,0-9.8,0-14.8c-306.6,0-613.3,0-919.9,0c348-19.6,696-27.1,1044.3-25.7
		c-142-30.5-2428.9-39-2674.5-10.9c309.7,7,619.6-0.1,929.4,25.3c-265.2,0-530.4,0-795.6,0c0,5.5,0,11,0,16.5
		c106,20.7,214.2,5.9,321,20.8c-142,0-284,0-425.9,0c0,3.3-0.1,6.6-0.1,9.9c51,0,101.9,0,152.9,0c0,3.9,0,7.9,0,11.8
		c-96.9,0-194,3.6-290.5-1.9c-34.5-2-63.7,11.5-96.2,13.2c-24.9,1.3-22.2,18.1-8.2,34.5c21.7,25.4,64.5,46.9,16.3,86.8
		c-8.4,6.9,2.8,13.5,9.3,18.3c8.8,6.6,22.7,12.1,15.8,26.4c-5.8,12.2-20.1,8.4-31,10.5c-65.4,12.8-134.1,5.6-208.1,42.7
		c40.6-81.5,34-157.8,40.4-231.8c6.5-76.1-4.1-86.1-77.3-89.4c-43.6-2-56.5-22.5-54.5-62.9c2.2-44.8,37-32.7,61.5-40.8
		c-24.9-6.9-41.7-22-39.6-50.8c2.4-32.1,29.2-28.8,48.5-28.6c164.2,1.2,328.5,4.5,492.7,6.1c105,1,210.1,0.2,315.2,7.9
		c-126.4,14.5-253.7,6.2-379.6,25.4c125.8,8.8,250,31.2,376.3,33.7c685.3,13.8,1370.5,16,2055.9,8.9c20.6-0.2,41.2,0,62-4.9
		c-65.2-19.8-132.5-8.8-198.6-21.8c156.3,0,312.7,0,469,0c-110.2-22.7-222.1-15.4-332.1-40.7c107.9,0,215.9,0,323.8,0
		c131.5,0,263-0.1,394.4,0.2c16.4,0,33,0.8,49,4c25.5,5.2,34.7,20.7,16.2,42c-19.2,22-18.6,41.5-10.1,69.5
		c15.6,51.1-0.9,73.6-54.5,70.8c-54.9-2.8-70.1,18.2-69.5,70.2c0.7,54.5,0.4,108.8,5.6,163.1c5.7,59.1,36.8,94.8,92.2,115
		c96.6,35.4,149.5,119,146.5,221.7c-15.8,556.1-31.8,1112.2-44.5,1668.4c-12.9,562.8-22.3,1125.7-46.2,1688.2
		c-1.1,26.4-4.8,52.6-6.4,78.9c-11.8,191.3-95.6,283.2-294.6,347.6c-469.3,151.9-955.8,143.3-1439.7,160.3c-31,1.1-62.6-4.2-93,6.7
		C1979.8,5836,1927.2,5836,1874.6,5836z M3571.8,1235.8c0.4-5.7,0.8-11.4,1.1-17.1c-1065.2,0-2130.4,0-3195.6,0
		c704.5,11.6,1408.4,53.8,2113.6,38.6c-36.8,0-73.5,0-110.3,0C2777.6,1234.2,3174.9,1244.4,3571.8,1235.8z"/>
	<path id="XMLID_48_" class="st0" d="M3071.2,5636.4c12.3-23.2,32.5-12.8,45.5-26.7c-41.9,4.8-83.7,10.4-125.6,14.4
		c-215.6,20.4-430.3,49.5-647.2,57.8c-194,7.5-387.4-0.8-581.1-4.3c-296.1-5.4-589.2-41.1-882-83.3
		c-84.4-12.2-162.3-36.4-239.7-67.2c-17.4-6.9-41.5-15-39.4-38.7c2.2-24.6,28.8-15.4,44.1-21.9c99.1-42.1,206.6-26.8,309.3-44.7
		c58-10.1,117-16.3,175.9-20.1c120.2-7.8,238.6,18.2,358.3,21.9c168.6,5.2,336.4,18.6,506,11.6c117-4.9,232.2-28.7,351.8-17.9
		c132.9,11.9,268.4,1.4,402.2-7.7c75-5.1,134.9,36.4,204.1,47.2c98.3,15.2,196.9,23,295.9,18c34.4-1.7,65.2-2.6,92.9,19.6
		c13.5,10.8,29.2,14.2,45.8,16.1c12.4,1.5,28.9-0.7,30.5,17.6c1.3,15-10.5,24.3-22.2,30c-26.5,12.9-52.8,28.9-81.1,34.8
		C3235.6,5609.5,3155,5621.8,3071.2,5636.4z"/>
	<path id="XMLID_36_" class="st0" d="M1578.9,332.2c-27.6-34.6-43.5-71.2-37.9-111.1c8-56.9,18.2-114.3,35.9-168.7
		c14.1-43.3,59.9-26.9,92.6-31.5c21.1-3,37.5,15.6,65.9-7.1c21.3-17,73.1-17.1,113.2-6.7c-3.5,5.5-4.7,9.7-6.6,10
		c-21.1,3.8-54.4-5.4-53.4,27.7c1,32.4,35.2,42.9,60.8,43.6c83.5,2.5,167.3,1.5,250.7-2.2c23.4-1,49.1,7.6,71.6-9.2
		c12.5-9.3,35.3-10.1,32.1-31.5c-3.3-22.1-23.8-24.5-42.4-25.5c-11.2-0.6-22.4-0.1-40.6-0.1c18.1-21.3,34.4-19.6,51.8-15.7
		c14.4,3.2,29.8,9.8,43.3,7.2c42.9-8.4,60.9,5.9,53.1,50c-4.5,25,26.2,32.7,25.3,60.6c-1.7,48.7-42.9,66.8-62.9,100.5
		c-2.3,3.8-12.7,6-18,4.4c-109.6-33.3-243.8-33-357.2,2c-11.9,3.7-27.3,16.4-32.1-3.7c-13.3-56.2-73.4-60.1-104.7-97.4
		c-22-26.2-61.5-10.3-77.8,27.9c-14.7,34.4-30,69.4-34,107.4C1605.1,288,1596.8,309.8,1578.9,332.2z"/>
	<path id="XMLID_35_" class="st0" d="M2774.6,685.3c-24.7,7-44.6,14.9-65.8,6.5c0.5-18,32.8-11.1,24.5-30.9
		c-6.9-16.7-25-10.7-39.7-9.7c-257,18-513-19.9-769.6-13.6c-171.5,4.2-343,11.1-514.5,18.6c-33.4,1.5-62.1-20.3-96.4-12.7
		c-13.7,3-32-4.4-38.6,12.5c-8.5,21.8,23.7,10.2,26,25c-2.4,2.3-3.4,4.2-4.7,4.3c-21.9,2.8-46.6,9.4-59.9-14.4
		c-6.4-11.4,48.3-74.1,63.6-73.5c125.5,4.4,251.2-16.4,377,7.5c40.4,7.7,84.6,2.3,127.1,3.3c147.4,3.3,295.4,15.1,442.2,1.5
		c135.3-12.5,269.8-9.4,404.8-4.6C2732.7,607.8,2732.7,607.7,2774.6,685.3z"/>
	<path id="XMLID_34_" class="st0" d="M3507.8,1090.5c-51.9,31.6-439.9,40.2-551,12.6c94.3-7.8,176.5-14.5,258.7-21.3
		c6.5-0.5,13.2-0.1,19.7-1c22.5-3,53.4-1.2,58.2-26.5c5.5-29-24.1-40.2-47.4-48.4c-29.3-10.3-47.5-23.5-64.8-55.3
		c-28.4-52.2-75.4-94.8-128.9-126.3c-74.8-44.1-150.7-85.8-233.9-112.3c99.2,24.5,195.8,56.4,275.8,122.8
		C3218.6,938,3356.1,1018.9,3507.8,1090.5z"/>
	<path id="XMLID_33_" class="st0" d="M2431,367.9c-31.9-52.1-54.4-98.8-60.4-158c-4.3-42.7-44.4-81.7-68-122.7
		c-8.5-14.8-27.8-29.3-13.7-48.2c14.8-19.9,37.3-23.6,62-18.7c96.2,19.4,91.6,20.3,117,120.1C2488.7,222.7,2481.9,295.5,2431,367.9z
		"/>
	<path id="XMLID_32_" class="st0" d="M1199.8,706.9c-39.8,13.4-81.2,23.4-119.2,40.8c-110.5,50.6-206.9,119.9-274.8,223.9
		c-10.5,16-28.9,21.3-44.6,29.9c-18.5,10.1-42.8,15.7-38,44.1c4.9,29.1,31.8,26.6,51.3,28.3c75.2,6.6,150.7,10.5,226,15.5
		c12.2,0.8,24.4,2.3,44.2,4.2c-114.1,28-221.6,14-328.8,8.2c27.3,0,54.6,0,81.9,0c-80.4-5.3-155.7-29-233.5-48.5
		c9.5-21.3,25.1-23.4,36.2-20.3c50.8,14.1,75.5-21.5,103.3-51.5c19-20.5,43.5-35.6,65.6-50.1c126.7-83.2,238.8-193,394.2-225.6
		c11-2.3,21.8-5,32.7-7.5C1197.4,701,1198.6,703.9,1199.8,706.9z"/>
	<path id="XMLID_31_" class="st0" d="M2422.4,492c-17.3-12.7-59.7,0.1-35.9-43.3c3.6-6.5-10.8-8.8-18.5-10.4
		c-16-3.3-32-6.6-47.8-10.6c-18.8-4.8-34.7-13.7-30.1-37c4.5-22.2,22.2-20.2,39-18.2c11.4,1.3,22.7,2.2,34.1,3.4
		c40.1,4.2,77.1,9.7,56,67.2C2414.7,455.6,2420.8,472.1,2422.4,492z"/>
	<path id="XMLID_30_" class="st0" d="M1708.2,366.8c5.5,40-16.8,56.4-50,64.4c-16.8,4-35.6,6.5-15.5,31.9c6.4,8-4.7,22.3-16.8,25.3
		c-12.6,3.2-17.5-8.6-19.4-17.5c-5.9-27.1-10.9-54.5-14.2-82c-2.3-19,14.3-19.7,26.7-21C1649.5,365,1680.1,359.6,1708.2,366.8z"/>
</g>
</svg>
